ply
format ascii 1.0
element vertex 551
property float x
property float y
property float z
element face 1123
property list uchar int vertex_indices
end_header
-0.720357362477142 -2.64766760022997 -10
0 -5 -10
-2.49722923636742 -4.33171567200005 -10
-2.44430878621747 -2.09585451515587 -10
-4.33171559258112 -2.49722937412288 -10
-1.64576893607061 -4.72138164196298 -8.26744511687799
-3.14109061726418 -0.829766859729933 -10
-3.53674017343194 -3.53432722673391 -7.84951419573397
-4.73261297194748 -1.61318766972553 -8.32216463045737
-5 0 -10
1.60590263660114 -4.73508993808539 -8.32982769232208
2.49722820067925 -4.33171626909594 -10
0 -5 -7.50737768653653
2.28076625300377 -2.28193573650157 -10
4.33171488748275 -2.49723059714509 -10
3.04836981862731 -1.0184126172869 -10
3.54491816683312 -3.52612467029408 -7.85387435648702
4.71936778220973 -1.65153496367495 -8.26242012258683
5 0 -10
1.01342536118353 -3.05919122185353 -10
-3.17293912494293 0.638248147649989 -10
2.63586504863597 0.716567590201606 -10
1.0268098838074 -1.03373071553036 -10
-1.43471011665974 -0.378845106726847 -10
-1.96551091213097 1.91291540802159 -10
-1.88568223970134 -4.63078853877771 -6.29688118854155
-3.49965941393149 -3.57104802354724 -5.17939994107887
-1.86351746230293 -4.63975243603493 -3.84671118320484
-3.42154277260389 -3.64596284337102 -2.58446479102768
0 -5 -5.00560889686828
-4.64664877954932 -1.84625434854269 -6.21646675388895
-5 0 -7.50737768653653
-4.71472557080519 1.66474105854203 -8.2264109476912
-4.331715481793 2.4972295662895 -10
-2.4972287166793 4.33171597161116 -10
0.351081949938969 1.38110337283153 -10
1.81328028867781 -4.65961528397919 -6.24716085422149
-1.8129209743166 -4.65975509451763 -1.32507969456145
0 -5 -2.50280444834649
1.79238320237217 -4.66769348349419 -3.78800257330547
3.42968167532431 -3.63830779428358 -5.22474207156571
2.12090353126346 2.40974346746982 -10
4.33171597161116 2.4972287166793 -10
2.4972295662895 4.331715481793 -10
4.7314996766499 1.61645006414114 -8.31929664601925
4.62966606414144 -1.88843642586587 -6.29109233030268
5 0 -7.50588092037752
-3.42969243812501 -3.63829764860822 -0.10788066810261
-4.61794581351475 -1.91691848116753 -3.82737824992161
-4.58737898001902 -1.98895804221197 -1.33439740922828
-0.641539643333411 3.13227239022083 -10
0.813127800087475 3.12659171731442 -10
0 5 -10
-5 0 -5.00560889686828
-4.6304560523582 1.8864985415259 -6.22162807247263
-3.55843499924611 3.51248350261468 -7.84307858998042
-1.61508617061238 4.73196541211964 -8.32127984837273
1.6627478972541 4.71542887022772 -8.23421520110811
-5 0 -2.50280444834649
-1.80360132104426 -4.66337026995792 1.17694246172456
0 -5 0
0 -5 2.50280444834649
-1.82483020207355 -4.65510415926435 3.61153760015962
-3.45433452551641 -3.61490981710821 2.45616277734188
-3.54269212079014 -3.52836116877106 5.07723902568029
-4.62880588941757 -1.89054384717552 3.71053021079657
1.84409331711415 -4.64750684106812 -1.31831197801293
3.5023243642191 -3.56843439729488 -2.52602053976024
4.61717121448198 -1.91878346255094 -3.90583584086129
1.82703934171959 -4.65423755773261 1.20598705160794
3.4968790178776 3.57377071653001 -7.84075812146795
5 0 -5.00261014088157
4.64355301967155 1.85402679416971 -6.13135686256378
-4.59532603069835 -1.97052751099449 1.2096814438576
-5 0 0
0 5 -7.50503363447166
-4.60833645387775 1.9399059585097 -3.84226169071098
-3.48266466627664 3.58762411942336 -5.1517437423189
-1.8190135607879 4.65738012896411 -6.24574943147412
1.86556049969175 4.63893134482392 -6.21486207704186
-4.58222272844466 2.00080855329169 -1.38182984854076
-5 0 2.50280444834649
-1.83916830534101 -4.64945802697788 6.07509942404466
-3.51106939755036 -3.55983028887409 7.77877659073403
-4.6412813833612 -1.85970619197354 6.1897526361887
-1.65736906329956 -4.71732209924418 8.19646349850003
0 -5 7.50737768653843
0 -5 10
-0.482420650154558 -3.18528016614594 10
0.851620102549174 -3.19283537547827 10
-2.49723026873576 -4.33171507681777 10
-5 0 5.00560889686911
-4.33171589028412 -2.49722885774449 10
-4.71712802009005 -1.65792136185084 8.20176163007097
0 -5 5.00560889686911
1.82945669945243 -4.65328788974298 6.08408460931034
1.81737226605278 -4.65802082934181 3.59987478985087
1.6415601744686 -4.72284661974096 8.25585230497653
3.50001226298644 -3.57070219409916 -0.00871850012460545
4.61139176411839 -1.93263188368118 -1.42123009386545
5 0 -2.4993393615817
3.41386448485749 -3.65315333363229 2.51760834464352
3.51245005643129 -3.55846801321522 5.06669348988165
3.43217755105602 3.63595341802217 -5.0276133484435
4.63879859234587 1.86589057011658 -3.88202775125295
-4.57076446074415 2.02684785921347 1.14046848517779
0 5 -5.00091248101406
-3.41192547077348 3.65496437491355 -2.52575630586458
-1.80161352773338 4.66413858034772 -3.79926074438813
1.84108919980996 4.64869772714285 -3.92053988691376
-3.3667685872825 3.69660239675405 -0.00601874150397269
3.53511479727916 -3.5359529649103 7.79649032985751
2.49722886877542 -4.33171588392456 10
2.08623630023306 -2.12377169600493 10
-4.58133485757595 2.00284071327691 3.67395896719802
-3.38080168343232 3.68377251975488 2.49968678071806
-5 0 7.50737768653843
0.483347601261053 -1.50210314034319 10
-1.72990820744471 -1.72782268594563 10
-3.17832933854522 -0.48658875926536 10
-4.63748672229703 1.86914871011343 6.21911041794437
-5 0 10
-4.71523875131638 1.66328696203763 8.20062442806948
-3.18587046474101 0.857420213776316 10
-3.51408026498854 3.55685814887494 5.06189132493115
1.67987421571687 0 1.49199839411936
0 0 0
2.57312138966333 0 0
0 1.67013044717484 1.51195026176298
0 0 2.5
4.72034822332886 1.64873061793492 -1.77280749267051
3.23507697243484 0 1.47623091960952
4.59694032270488 -1.9667586708821 1.06528171396227
5 0 0
3.37888010298719 1.18568933361525 0
4.63706580239559 -1.87019270243826 6.21587013374276
4.57801703802868 -2.01041289279569 3.65314372883482
3.44271337131361 3.62597912886692 -2.21288977471436
2.0863574839588 2.08240126740138 0
0 2.57480485613425 0
0 3.28340749541172 1.47693586781602
0 5 -2.49679132766235
1.18701821901582 3.37602942350444 0
-1.81133019998201 4.66037368744537 -1.32440782937559
1.6610715900749 4.71601963234315 -1.8123230758543
-1.79063812922252 4.66836321318023 1.13750348365493
4.714983741931 -1.66400970950484 8.20097678265484
4.33171508074256 -2.49723026192806 10
3.37158441454017 -1.22352125335639 10
2.57570999615545 0 10
0 0 5
0 2.48716822198018 3.74517252601641
-1.81439905607945 4.6591797631448 3.56713574008441
0 0 10
0 0 7.5
2.54446593672788 0 8.32619451705454
-1.50691246495406 0.498472895155499 10
-3.53512122615428 3.5359465375474 7.79608004562356
-4.33171506606103 2.49723028739378 10
-2.13371413142378 2.09477128324611 10
0 2.50872380200439 5.97020030168772
-1.82959478558355 4.65323359832338 6.06796750885054
0 5 2.49679132766214
2.45522438300413 0 3.72164719266491
2.51546534961359 0 6.20238909280658
5 0 7.50588092037793
4.3302130222588 2.49983932417443 0
6.36103912600794 1.51971332769023 0
7.29754108871178 0 0
4.73264147863094 1.61310403717241 1.67515427895327
5 0 2.49933936158189
6.64563465522814 0 1.63582122930896
4.64984374839105 1.83819289399907 3.78596440822895
5 0 5.00261014088163
8.48133689496992 0 1.83138030623183
9.72175837287857 0 0
10.8046602072254 0 1.96450698077598
9.24741938895017 0 3.87180960594547
6.98793035590766 0 3.4535793811196
2.49675336572497 4.33199332999819 0
3.53554303058415 3.53552478125778 2.15351476264027
1.6456103939108 4.72143690325866 1.73619024342578
0 5 0
5 0 10
3.37957308897698 1.20102686352778 10
1.8798076390946 4.63317636616626 3.78648918707674
2.05410852756785 2.12958631308275 10
0 6.57353910580241 1.75639864456279
0 5 5.0009124810141
1.85578873265138 4.64284914462706 6.12905560122735
0 6.69930537180414 3.77174302370359
0 2.53850866525439 8.11122430910025
-1.64242079166461 4.72254739977354 8.25539852741796
0 2.57570999615547 10
1.19050546621544 3.38082471917807 10
-2.49722884791113 4.33171589595327 10
-1.23987463652803 3.37142244742466 10
0 5 7.50503363447178
2.22461984743011 6.4081727036435 0
8.35665030730642 1.91129515475932 0
3.54571853979452 3.52531984883037 4.94836257480884
4.64583918322195 1.84829063830329 6.12180106074276
4.71942621008225 1.65136799278315 8.22112902125462
7.54488195506607 0 5.69276725120453
7.30236556428018 0 8.08691306403342
9.20066753766466 0 7.29645786238278
7.29341580311438 0 10
6.4342665176461 1.56442045675788 10
12.2902698981352 0 0
14.8601799320901 0 0
13.3464617876795 0 2.28391882458721
18.1722982026298 0 1.70782693725939
17.430089966045 0 0
20 0 0
20 0 2.5
10.9229744064691 2.08324109934891 0
4.87639913837083 5.58121256965794 0
6.67701539767708 3.64430892272626 0
11.8534079757182 0 4.05798224587104
10.0002696240754 0 5.8781131642256
11.1357096932216 0 7.86270604771796
0 7.63057009594523 0
3.52544045183626 3.54559862654482 7.78644362840408
4.33171603157083 2.49722861267671 10
1.65933426601993 4.71663119118 8.19722600444779
2.49722904374035 4.33171578305361 10
0 8.97197911891772 2.45134069316536
0 6.68397090630527 6.13842393479297
0 8.29617594132504 4.95709710402947
0 5 10
0 6.56431332447936 8.21938582055622
4.07932342033349 7.78649892003797 0
2.39327636290177 9.02673242792143 0
7.43496557602104 6.18624093222228 0
6.10462702156425 7.85546121029286 0
9.53543261610903 4.58514029760046 0
12.1271376829209 0 6.307557269148
14.6625538453965 0 4.9898223976442
9.71851341678271 0 10
8.41369082358308 1.97935334218127 10
6.73610392185283 3.86131871892769 10
13.671869133284 0 7.83138824984468
12.2878413054945 0 10
17.8729567449723 0 3.74796416617952
16.0616979409861 0 1.96141445014878
13.4569886826813 2.11269402970898 0
16.0113636648386 1.85740826584711 0
18.2402303785815 1.66929328207485 0
20 1.71090567127557 1.88260314746588
20 2.72727272727273 0
14.8585608703297 0 10
20 0 5
20 1.8800184935498 3.88808550651524
17.8410998509867 0 6.23398210101083
16.0795524059427 0 7.93885278401279
18.2122935799245 0 8.30508228772467
20 0 7.5
17.4292804351648 0 10
12.3644315262253 4.27133772232126 0
9.63629001299457 7.13455150219086 0
11.3487225027334 6.30839836698661 0
14.6304375286934 4.20048947214808 0
0 10.4212009098073 0
4.92261591080659 5.631199936849 10
2.3256645255468 6.51571353029372 10
0 11.8633306950254 2.44209435746747
0 10.6090163792224 4.94888719734663
0 9.00687017753804 7.50482736402997
0 7.62889038258693 10
0 13.2181721666571 0
4.85197724886315 10.13588848096 0
2.33644566704141 11.7206311199227 0
8.23692494768822 8.44548440976995 0
7.08873499393143 9.70673352649906 0
7.44053669595097 6.3702363643697 10
11.1472673455798 2.38363598229226 10
9.71962359666331 4.74971512505298 10
13.529065464612 2.20008421350334 10
17.6005963730422 4.0901776507537 0
20 5.45454545454546 0
20 4.16529005948794 2.43504668743481
16.1686672794962 1.95468845229234 10
20 1.87974234791577 6.17157742225859
20 3.48236746094384 4.99009978120633
20 1.65563753930954 8.14135624052665
18.1228626984299 1.74609944758027 10
20 0 10
10.0122662366367 9.45728741435679 0
13.5108809029199 6.69022155285086 0
11.592444300765 8.20520685242091 0
15.7780216281659 6.18609209333849 0
15.6218576726238 8.27212996826606 0
9.64570803740116 7.20419075047193 10
6.85926659828941 11.8564253547157 0
8.25748496870946 8.49825530094996 10
0 14.6166578194357 2.4239531063817
0 16.0151434722142 0
6.15346320280977 7.92138940480067 10
4.13426627329911 7.86871163563787 10
2.42574247716831 9.09226793538834 10
0 13.204910193253 4.93527060504817
0 11.8979346833862 7.50117209517936
0 10.4197373978775 10
2.1916154132291 14.4889167179141 0
4.45761766830049 13.0956475724861 0
0 17.4136291249928 2.4239531063817
0 18.8121147777714 0
8.66473126088435 10.4516516675728 0
8.81180119379471 12.8875789122198 0
12.3617325259838 4.40312231015191 10
11.344008091851 6.36343332747583 10
14.7948408700911 4.41172067185812 10
17.7557013481775 6.92445702640207 0
17.6025358153469 9.58446410656504 0
20 8.18181818181818 0
20 6.99129822408263 2.41078974148615
20 5.74980684948577 4.94125404695778
17.6124525423267 4.12904256596487 10
20 4.29793431923941 7.51616048959296
20 2.72727272727273 10
2.21200760460012 17.2131090013958 0
10.5176765610424 11.5396444452045 0
11.6501116857185 10.1369100233817 0
13.4916159736025 9.53635054988223 0
15.2067896641115 10.8715110981883 0
11.6195272964595 8.24555562907817 10
10.1162537657649 9.56018002397271 10
6.64699141349276 14.6250790905891 0
7.11777042296848 9.71604727075153 10
8.76754892029994 10.512687281259 10
0 15.9517724146362 4.92400019082868
4.85549762320301 10.1543935425369 10
2.38326137522455 11.8503028283092 10
0 14.570074855014 7.50610648095028
0 13.2169177298669 10
4.45709107848839 15.9707698175135 0
4.52036760419143 18.8074584346631 0
0 17.3131585091185 7.51713338878376
0 16.0140981082224 10
2.23045724374238 19.9959496378893 0
0 21.6090860833285 0
0 20.0898452161932 2.38656354582033
0 18.7234592979152 4.86531137294633
0 20.0923600548648 7.56409506382592
12.7884237528815 11.8091453696141 0
10.9302195783035 13.76305063575 0
8.91198676631198 15.5470429046431 0
13.5805522376783 6.75590691052606 10
15.7974028809128 6.23346894295689 10
15.1444494137388 13.4765738415049 0
17.597173152409 12.2727272727273 0
20 10.9090909090909 0
20 9.65929033710227 2.38298751351633
20 8.34673483482666 4.86925033134672
17.9272595185372 7.05883084049784 10
20 7.0146111353791 7.50380990365107
20 5.45454545454546 10
11.6704725292344 10.1395732259097 10
13.4095611541484 9.61416074332967 10
10.5380573970771 11.65194015466 10
13.0558693274506 14.7568880250344 0
7.05228221880686 17.7292235958045 0
9.53645033597174 17.8101070694087 0
0 24.4060573888857 0
2.28414669617711 22.6655780284428 0
6.88260391167265 12.0147293673556 10
8.9177466934752 12.9499333018369 10
4.52384900771149 13.2275324845803 10
2.21887737992184 14.6596159247939 10
4.52090119960973 21.3315412325279 0
6.25796169382119 20.1091366300973 0
0 18.8112784865779 10
2.3885127859809 17.5020578858966 10
0 22.822475033727 2.42535883715925
0 21.4243463981845 4.88621395837116
0 25.6755778969487 2.36347115551692
0 27.2030286944428 0
0 28.2176097878454 1.82002139613154
0 30 0
0 30 2.5
0 24.1085953178515 4.94248343376115
0 21.6084588649335 10
0 22.7832798511404 7.50999296393693
0 26.4042624664202 4.97338517336828
11.0215365738077 16.7342847137937 0
15.3012937747349 16.2258861730411 0
17.597173152409 15 0
15.6495900675961 8.43101630717361 10
20 13.6363636363636 0
20 12.2727272727273 2.402826847591
20 10.9640160642861 4.8809753401014
17.7884049441639 9.69350226682584 10
20 9.60540996153015 7.59240220068128
20 8.18181818181818 10
15.5594880518689 11.0520936981082 10
13.0131205236493 12.0582573771895 10
11.0264361453101 14.0028138625579 10
13.1694941619796 17.5555120553984 0
11.0553104333863 18.9861370148338 0
4.41004863095305 23.4270250642439 0
2.57671638105042 25.6878513489324 0
0 28.0068660849028 3.81601894883047
8.75267931146504 20.1813187982592 0
6.79524544507139 14.903987392434 10
8.99488651760696 15.8603083586859 10
4.66221942105928 16.2292757264202 10
7.00095838141521 22.6510612043693 0
2.16983201916461 28.1414312186194 0
2.39266085406605 20.1926164878658 10
4.71210679703589 18.8597713223502 10
1.82683591265392 30 2.501486061841
2.85714285714285 30 0
0 30 5
0 25.6469095128062 7.50817884868345
2.40684728476932 22.842803018908 10
0 24.405639243289 10
0 28.0957576268773 6.14148446466851
0 27.2028196216445 10
0 28.3182067187299 8.16444616653813
0 30 7.5
15.2985987365744 18.8963598871049 0
17.597173152409 17.7272727272727 0
20 16.3636363636364 0
20 15 2.40282684759101
20 13.6714461921633 4.81021960255365
20 12.3282972256667 7.59625466177648
17.597173152409 12.2727272727273 10
20 10.9090909090909 10
15.4342610683054 13.7407099159298 10
13.2256686559438 14.9954951296056 10
11.1080102097291 16.8722679428434 10
13.0849922305178 20.242650190583 0
11.161035829467 20.9092767991247 0
4.33587175834566 27.9160836800976 0
5.68599929029139 25.3780821332352 0
2.73884777652942 30 4.32376680569569
9.82139853358959 22.8901187719266 0
7.2701116221135 17.8048967060095 10
9.53166454554664 17.9303589617617 10
8.42286034611591 25.2500754257364 0
5.71428571428571 30 0
4.62066932937881 21.4582092943061 10
6.50438136193355 20.267288836702 10
4.47438279864417 30 2.93371723939066
4.47663508831702 23.5702720325432 10
2.14354624712812 30 6.2431878323208
4.06930842096174 30 5.23258502471557
2.61312539207792 25.8038286141191 10
1.77721414661366 30 8.19031446265336
2.00168034966343 28.2184393492828 10
0 30 10
15.2294400584935 21.564565947835 0
17.597173152409 20.4545454545455 0
20 19.0909090909091 0
20 17.7272727272727 2.402826847591
20 16.4041221049456 4.82651793529928
20 15.0115406603639 7.59698684256898
17.597173152409 15 10
20 13.6363636363636 10
15.4731526202214 16.4962688932716 10
13.2859930781598 17.830166020285 10
11.1223148760702 19.1628373118225 10
12.8432095565884 22.9737929298804 0
15.5609105549909 24.3812112573338 0
11.2099349072891 25.3816035178502 0
9.89905363110295 27.6641724403713 0
12.6105752792997 27.6599132114641 0
7.07972552085812 27.6422389023189 0
8.70755454944131 20.3035338812071 10
8.57142857142857 30 0
7.39594841761037 30 2.49127018725751
7.19460415445625 22.7744810391632 10
6.21838295210403 30 5.11088366151136
5.82173074052982 25.6300454876276 10
4.64306826119969 30 7.52225716113815
4.39793951529546 28.0156070725846 10
2.85714285714285 30 10
17.6261578724625 23.0585515321005 0
17.892439660108 25.8527123691603 0
18.1036472902593 27.9513049860634 0
20 27.2727272727273 0
20 24.5454545454545 0
20 21.8181818181818 0
20 20.4545454545455 2.40282684759101
20 19.1663992157132 4.91079760440995
17.597173152409 17.7272727272727 10
20 17.7604779527691 7.5892738551027
20 16.3636363636364 10
15.3975059799822 19.1089277609567 10
11.2050375582046 21.1177895921796 10
13.1353313355641 20.4744244492841 10
15.5534725138826 27.4833984597957 0
13.4885807222442 25.6029706224638 0
11.4285714285714 30 0
17.1428571428571 30 0
14.2857142857143 30 0
9.82806465036389 23.0435375412148 10
10 30 2.44219163867212
8.78207346741553 30 5.02603287510138
8.5917832506779 25.3450725168394 10
7.52996900742506 30 7.6098191065428
7.1182108534033 27.7071638114737 10
5.71428571428571 30 10
20 30 0
18.2960249066194 30 1.85512067834977
20 28.3541427484405 1.74869745422857
20 26.3264561468267 2.16544897919123
20 23.41618590089 2.38878598730988
20 22.1818839191219 5.01042421107162
17.597173152409 20.4545454545455 10
20 20.5921070369069 7.53881150646858
20 19.0909090909091 10
15.3184493141506 21.8312324327817 10
12.8842619465214 23.2296674422245 10
12.8213041949402 30 2.49224893035412
15.7382096714985 30 2.54202700793891
11.2607481152363 25.5513805028874 10
11.4117367987518 30 5.00525881665525
10.1917473716666 30 7.65827491721351
9.98132488295922 27.6967887257822 10
8.57142857142857 30 10
20 28.106365619298 3.80300663169807
18.1251947108311 30 3.82040481492815
20 30 2.5
20 25.4004109788193 5.00758958260979
20 23.435758423935 7.54094056363742
17.6758663237976 23.1357625693567 10
20 21.8181818181818 10
15.4062812663694 24.488189182739 10
13.5526729727087 25.6691704359657 10
14.1832878469397 30 4.9526276542345
16.4465381629056 30 4.96087523368156
12.7285795152607 27.8472175726422 10
12.8327706307272 30 7.5217854171889
11.4285714285714 30 10
20 28.1245279397051 6.22579385100226
18.119729854614 30 6.16793358702187
20 30 5
20 26.3186799700759 7.87358568892431
18.0313172111342 25.8940117174083 10
20 24.5454545454545 10
15.7214168807733 27.4820389073082 10
15.6507094609622 30 7.4857959018874
14.2857142857143 30 10
18.3096823695934 30 8.16631468049098
20 28.3988839783178 8.27698404283903
18.2674531830916 28.1982788900841 10
20 30 7.5
20 27.2727272727273 10
17.1428571428571 30 10
20 30 10
3 0 1 2
3 3 2 4
3 3 0 2
3 5 2 1
3 3 4 6
3 7 4 2
3 5 7 2
3 8 4 7
3 8 9 4
3 6 4 9
3 10 1 11
3 5 1 12
3 10 12 1
3 13 14 11
3 15 14 13
3 16 11 14
3 10 11 16
3 17 16 14
3 15 18 14
3 17 14 18
3 19 11 1
3 19 1 0
3 19 13 11
3 20 6 9
3 15 21 18
3 19 0 22
3 13 19 22
3 13 22 15
3 15 22 21
3 6 20 23
3 6 23 3
3 3 23 0
3 0 23 22
3 20 24 23
3 5 12 25
3 5 25 7
3 25 26 7
3 26 25 27
3 27 28 26
3 25 12 29
3 29 27 25
3 8 7 30
3 30 7 26
3 8 31 9
3 8 30 31
3 32 9 31
3 32 33 9
3 20 9 33
3 20 33 24
3 24 33 34
3 24 35 23
3 21 22 35
3 35 22 23
3 36 29 12
3 10 36 12
3 10 16 36
3 28 27 37
3 27 29 38
3 38 37 27
3 39 38 29
3 29 36 39
3 40 39 36
3 36 16 40
3 41 21 35
3 21 42 18
3 41 42 21
3 41 43 42
3 44 18 42
3 17 45 16
3 45 40 16
3 17 18 46
3 17 46 45
3 44 46 18
3 37 47 28
3 30 26 48
3 48 26 28
3 28 49 48
3 49 28 47
3 50 24 34
3 50 35 24
3 41 51 43
3 51 41 35
3 51 35 50
3 51 52 43
3 50 34 52
3 50 52 51
3 30 53 31
3 53 30 48
3 54 31 53
3 32 31 54
3 55 34 33
3 32 55 33
3 32 54 55
3 56 52 34
3 56 34 55
3 57 43 52
3 48 58 53
3 58 48 49
3 47 37 59
3 37 38 60
3 60 59 37
3 59 60 61
3 61 62 59
3 63 59 62
3 59 63 47
3 62 64 63
3 65 63 64
3 66 60 38
3 38 39 66
3 67 66 39
3 39 40 67
3 45 68 40
3 68 67 40
3 69 61 60
3 60 66 69
3 70 42 43
3 44 42 70
3 57 70 43
3 45 46 71
3 71 68 45
3 72 71 46
3 44 72 46
3 44 70 72
3 63 65 73
3 47 73 49
3 73 47 63
3 49 74 58
3 74 49 73
3 56 75 52
3 57 52 75
3 76 53 58
3 53 76 54
3 54 76 77
3 54 77 55
3 56 78 75
3 56 55 78
3 78 55 77
3 57 75 79
3 57 79 70
3 80 58 74
3 58 80 76
3 73 81 74
3 81 73 65
3 82 64 62
3 82 83 64
3 64 84 65
3 84 64 83
3 85 86 87
3 85 82 86
3 85 83 82
3 88 87 89
3 85 87 90
3 85 90 83
3 88 90 87
3 65 91 81
3 91 65 84
3 90 92 83
3 93 83 92
3 93 84 83
3 62 61 94
3 82 94 86
3 94 82 62
3 95 86 94
3 96 94 61
3 94 96 95
3 61 69 96
3 97 87 86
3 97 86 95
3 98 69 66
3 66 67 98
3 67 68 99
3 99 98 67
3 68 71 100
3 100 99 68
3 101 96 69
3 69 98 101
3 95 96 102
3 96 101 102
3 72 70 103
3 79 103 70
3 104 100 71
3 71 72 104
3 72 103 104
3 105 74 81
3 74 105 80
3 78 106 75
3 79 75 106
3 80 107 76
3 76 107 77
3 106 78 108
3 77 108 78
3 108 77 107
3 106 109 79
3 103 79 109
3 110 80 105
3 80 110 107
3 97 95 111
3 95 102 111
3 89 87 112
3 97 112 87
3 97 111 112
3 89 112 113
3 114 81 91
3 81 114 105
3 115 105 114
3 105 115 110
3 84 116 91
3 93 116 84
3 89 117 88
3 113 117 89
3 92 90 118
3 88 118 90
3 88 117 118
3 119 92 118
3 120 91 116
3 91 120 114
3 93 121 116
3 93 92 121
3 119 121 92
3 122 116 121
3 122 120 116
3 119 123 121
3 124 114 120
3 114 124 115
3 125 126 127
3 128 126 129
3 125 129 126
3 130 100 104
3 131 125 127
3 98 99 132
3 132 101 98
3 99 100 133
3 133 132 99
3 131 127 133
3 134 133 127
3 130 133 100
3 135 111 102
3 101 132 136
3 102 136 135
3 136 102 101
3 130 104 137
3 109 137 103
3 104 103 137
3 127 126 138
3 134 127 138
3 128 139 126
3 139 138 126
3 140 139 128
3 108 141 106
3 109 106 141
3 142 138 139
3 141 108 143
3 107 143 108
3 143 107 110
3 144 109 141
3 144 137 109
3 110 145 143
3 145 110 115
3 146 111 135
3 113 112 147
3 148 113 147
3 111 147 112
3 146 147 111
3 148 149 113
3 113 149 117
3 129 150 151
3 128 129 151
3 128 151 140
3 115 152 145
3 152 115 124
3 153 117 149
3 117 153 118
3 154 155 153
3 149 153 155
3 123 119 156
3 119 118 156
3 156 118 153
3 122 157 120
3 120 157 124
3 122 121 158
3 122 158 157
3 123 158 121
3 123 159 158
3 159 123 156
3 150 154 160
3 160 151 150
3 161 152 124
3 161 124 157
3 162 145 152
3 140 151 162
3 129 163 150
3 125 163 129
3 125 131 163
3 150 164 154
3 163 164 150
3 155 154 164
3 146 135 165
3 155 164 165
3 134 166 133
3 134 138 166
3 130 166 133
3 130 137 166
3 167 133 166
3 167 168 133
3 169 133 166
3 132 133 170
3 170 136 132
3 131 133 170
3 131 170 163
3 169 170 133
3 168 171 133
3 171 170 133
3 169 172 170
3 136 170 173
3 135 173 165
3 173 135 136
3 173 165 164
3 170 173 163
3 164 163 173
3 172 173 170
3 174 168 175
3 175 176 174
3 171 168 174
3 174 176 177
3 170 178 173
3 171 178 170
3 171 174 178
3 174 177 178
3 138 179 166
3 142 179 138
3 179 166 137
3 144 179 137
3 180 166 179
3 169 166 180
3 181 180 179
3 169 180 172
3 145 162 182
3 143 182 141
3 182 143 145
3 140 182 139
3 140 162 182
3 142 182 179
3 142 139 182
3 144 141 182
3 144 182 179
3 181 179 182
3 181 182 162
3 148 147 183
3 148 183 149
3 146 165 183
3 146 183 147
3 165 183 155
3 149 155 183
3 184 149 183
3 181 162 185
3 181 185 180
3 149 186 153
3 184 186 149
3 187 182 162
3 152 188 162
3 188 152 161
3 162 151 188
3 160 188 151
3 185 162 188
3 188 189 185
3 190 162 188
3 187 162 190
3 154 153 191
3 191 160 154
3 192 161 157
3 156 153 193
3 159 156 193
3 193 191 153
3 193 153 186
3 194 193 186
3 157 158 195
3 192 157 195
3 159 195 158
3 196 195 159
3 196 159 193
3 161 197 188
3 192 197 161
3 188 160 197
3 191 197 160
3 189 188 197
3 179 182 198
3 199 175 168
3 167 199 168
3 185 189 200
3 172 180 200
3 185 200 180
3 201 165 173
3 173 172 201
3 200 201 172
3 202 183 165
3 202 165 201
3 173 203 165
3 178 203 173
3 178 177 203
3 165 204 183
3 204 165 203
3 205 204 203
3 206 183 204
3 207 183 206
3 176 175 208
3 208 209 210
3 208 210 176
3 211 212 213
3 214 211 213
3 215 208 175
3 175 199 215
3 179 216 166
3 179 198 216
3 217 166 216
3 167 166 217
3 167 217 199
3 218 176 210
3 176 218 177
3 205 219 220
3 205 203 219
3 219 177 218
3 219 203 177
3 187 221 182
3 221 198 182
3 202 201 222
3 189 222 200
3 201 200 222
3 184 183 223
3 184 223 186
3 202 223 183
3 202 222 223
3 207 223 183
3 224 189 197
3 224 222 189
3 186 223 225
3 194 186 225
3 222 225 223
3 224 225 222
3 187 226 221
3 187 190 226
3 227 188 197
3 188 227 190
3 228 190 227
3 228 226 190
3 192 195 229
3 192 229 197
3 196 229 195
3 196 193 229
3 197 191 229
3 193 229 191
3 194 225 229
3 194 229 193
3 224 197 229
3 224 229 225
3 230 197 229
3 230 227 197
3 231 216 198
3 198 221 232
3 231 198 232
3 216 233 217
3 234 233 216
3 231 234 216
3 215 199 235
3 233 235 217
3 199 217 235
3 236 220 219
3 236 219 218
3 218 210 237
3 236 218 237
3 206 204 238
3 220 238 205
3 205 238 204
3 239 206 238
3 207 206 239
3 207 240 223
3 207 239 240
3 236 241 220
3 236 237 241
3 220 242 238
3 220 241 242
3 211 214 243
3 244 209 212
3 211 244 212
3 244 210 209
3 211 243 244
3 210 244 237
3 244 243 237
3 245 209 208
3 208 215 245
3 246 212 209
3 209 245 246
3 247 213 212
3 247 212 246
3 214 213 248
3 247 249 213
3 248 213 249
3 250 242 241
3 243 214 251
3 252 251 214
3 248 252 214
3 243 251 253
3 253 237 243
3 254 250 241
3 241 237 254
3 254 237 253
3 255 254 253
3 251 256 253
3 255 253 256
3 254 257 250
3 255 257 254
3 245 215 258
3 258 215 235
3 259 235 233
3 260 258 235
3 260 235 259
3 245 261 246
3 261 245 258
3 221 226 262
3 232 221 262
3 225 223 263
3 240 263 223
3 225 264 229
3 264 225 263
3 262 226 265
3 265 226 266
3 228 266 226
3 230 267 227
3 228 227 267
3 228 267 266
3 230 229 268
3 230 268 267
3 268 229 264
3 269 262 265
3 231 232 270
3 231 270 234
3 271 262 269
3 271 232 262
3 232 271 270
3 234 272 233
3 259 233 272
3 273 234 270
3 273 272 234
3 240 274 263
3 242 275 238
3 239 238 275
3 275 276 239
3 274 240 276
3 239 276 240
3 277 242 250
3 277 275 242
3 247 278 249
3 247 246 278
3 246 261 278
3 249 278 279
3 279 280 249
3 248 249 280
3 248 280 252
3 281 250 257
3 250 281 277
3 282 256 251
3 251 252 282
3 283 282 252
3 283 252 280
3 284 256 282
3 285 281 257
3 285 257 286
3 255 256 286
3 255 286 257
3 284 286 256
3 272 287 259
3 258 288 261
3 260 288 258
3 260 259 289
3 260 289 288
3 289 259 287
3 290 278 261
3 290 261 288
3 290 288 291
3 292 274 276
3 273 270 293
3 294 274 292
3 269 295 296
3 265 295 269
3 297 263 274
3 297 274 294
3 298 264 263
3 298 263 297
3 264 299 268
3 298 299 264
3 265 300 295
3 266 300 265
3 301 266 267
3 266 301 300
3 268 302 267
3 267 302 301
3 302 268 299
3 303 269 296
3 303 271 269
3 304 271 303
3 271 304 270
3 293 270 304
3 296 305 306
3 295 305 296
3 273 293 307
3 273 307 272
3 287 272 307
3 293 308 307
3 275 277 309
3 309 276 275
3 310 276 309
3 310 292 276
3 277 281 311
3 309 277 311
3 279 278 312
3 290 312 278
3 290 291 312
3 291 313 312
3 312 314 279
3 312 313 314
3 314 315 279
3 280 279 315
3 315 316 280
3 283 280 316
3 285 317 281
3 281 317 311
3 284 282 318
3 283 318 282
3 283 316 318
3 285 286 319
3 285 319 317
3 284 319 286
3 284 318 319
3 320 296 306
3 296 320 303
3 321 307 308
3 287 307 321
3 322 289 287
3 322 287 321
3 291 288 323
3 289 323 288
3 322 323 289
3 291 324 313
3 323 324 291
3 310 325 292
3 294 292 326
3 325 326 292
3 304 327 293
3 308 293 327
3 328 297 294
3 328 294 329
3 329 294 326
3 295 330 305
3 330 295 300
3 298 331 299
3 298 297 331
3 328 331 297
3 299 332 302
3 299 331 332
3 301 333 300
3 300 333 330
3 334 301 302
3 301 334 333
3 332 334 302
3 335 303 320
3 303 335 304
3 327 304 335
3 320 336 335
3 333 337 330
3 334 338 333
3 337 333 338
3 306 339 320
3 339 336 320
3 339 306 340
3 306 341 340
3 341 306 305
3 305 342 341
3 342 305 330
3 330 337 342
3 337 343 342
3 323 344 324
3 322 344 323
3 322 321 344
3 321 345 344
3 321 308 345
3 346 308 327
3 308 346 345
3 311 347 309
3 310 309 347
3 310 347 325
3 348 311 317
3 348 347 311
3 324 344 349
3 313 324 350
3 349 350 324
3 351 314 313
3 313 350 351
3 351 352 314
3 315 314 352
3 315 352 353
3 353 316 315
3 348 317 354
3 355 318 316
3 316 353 355
3 356 317 319
3 356 354 317
3 356 319 318
3 318 355 356
3 357 326 325
3 325 347 358
3 357 325 358
3 329 326 359
3 357 359 326
3 349 344 360
3 345 360 344
3 336 361 335
3 327 335 361
3 346 327 361
3 362 346 361
3 340 363 364
3 364 339 340
3 328 365 331
3 328 329 365
3 365 329 366
3 359 366 329
3 332 331 367
3 365 367 331
3 368 338 334
3 334 332 368
3 367 368 332
3 369 339 364
3 336 339 369
3 370 336 369
3 370 361 336
3 338 371 337
3 343 337 371
3 371 338 372
3 338 368 372
3 340 373 363
3 373 340 341
3 373 341 374
3 342 374 341
3 374 342 343
3 363 375 376
3 375 363 373
3 377 376 375
3 377 378 376
3 379 378 377
3 373 380 375
3 380 373 374
3 371 381 343
3 382 343 381
3 382 374 343
3 380 374 382
3 383 375 380
3 360 345 384
3 362 384 346
3 346 384 345
3 360 385 349
3 350 349 386
3 385 386 349
3 348 354 387
3 348 387 347
3 387 358 347
3 351 350 388
3 350 386 388
3 351 388 389
3 352 351 389
3 389 390 352
3 353 352 390
3 391 387 354
3 355 353 392
3 353 390 392
3 354 356 393
3 354 393 391
3 393 356 355
3 355 392 393
3 391 394 387
3 358 387 394
3 358 394 395
3 357 358 395
3 357 395 359
3 359 395 396
3 366 359 396
3 385 360 397
3 397 360 384
3 384 398 397
3 362 398 384
3 399 369 364
3 363 376 400
3 363 400 364
3 399 364 400
3 377 401 379
3 377 375 401
3 383 401 375
3 370 402 361
3 362 361 402
3 362 402 398
3 367 365 403
3 366 403 365
3 403 366 404
3 396 404 366
3 372 368 405
3 368 367 405
3 403 405 367
3 399 406 369
3 370 369 406
3 370 406 402
3 376 378 407
3 407 400 376
3 408 381 371
3 372 408 371
3 408 372 409
3 405 409 372
3 379 410 378
3 407 378 411
3 411 378 410
3 401 412 379
3 379 412 410
3 382 413 380
3 383 380 413
3 414 381 408
3 381 415 382
3 413 382 415
3 381 414 415
3 412 401 416
3 383 416 401
3 383 413 416
3 415 417 413
3 418 413 417
3 418 416 413
3 416 419 412
3 418 419 416
3 397 420 385
3 386 385 421
3 420 421 385
3 388 386 422
3 386 421 422
3 388 422 423
3 389 388 423
3 423 424 389
3 424 390 389
3 392 390 425
3 390 424 425
3 426 394 391
3 391 393 427
3 391 427 426
3 427 393 392
3 392 425 427
3 426 428 394
3 394 428 395
3 429 395 428
3 396 395 429
3 429 430 396
3 404 396 430
3 420 397 431
3 398 431 397
3 432 431 398
3 432 398 402
3 407 411 433
3 407 433 400
3 433 434 400
3 399 400 434
3 399 434 406
3 435 410 412
3 436 402 406
3 432 402 436
3 409 405 437
3 403 437 405
3 404 437 403
3 438 437 404
3 438 404 430
3 439 406 434
3 436 406 439
3 433 411 440
3 441 414 408
3 441 408 409
3 442 441 409
3 442 409 437
3 440 411 443
3 410 443 411
3 435 443 410
3 444 414 441
3 445 412 419
3 445 435 412
3 435 445 446
3 435 446 443
3 415 447 417
3 415 414 447
3 444 447 414
3 448 445 419
3 449 417 447
3 418 450 419
3 418 417 450
3 449 450 417
3 419 450 448
3 431 451 420
3 421 420 452
3 451 452 420
3 422 421 453
3 421 452 453
3 422 453 454
3 423 422 454
3 454 455 423
3 424 423 455
3 456 425 424
3 424 455 456
3 428 426 457
3 427 458 426
3 426 458 457
3 458 427 425
3 425 456 458
3 457 459 428
3 429 428 459
3 459 460 429
3 430 429 460
3 430 460 461
3 438 430 461
3 431 462 451
3 432 462 431
3 432 436 462
3 451 462 463
3 464 439 465
3 439 464 436
3 464 462 436
3 464 465 466
3 440 467 433
3 467 465 439
3 467 434 433
3 434 467 439
3 442 437 468
3 438 468 437
3 438 461 468
3 467 440 469
3 469 465 467
3 469 440 470
3 470 440 443
3 444 441 471
3 442 471 441
3 442 468 471
3 472 470 443
3 446 472 443
3 444 473 447
3 444 471 473
3 445 448 474
3 446 445 474
3 446 474 472
3 449 447 475
3 475 447 473
3 449 476 450
3 449 475 476
3 448 450 476
3 448 476 474
3 452 451 477
3 477 451 463
3 463 478 477
3 479 480 478
3 478 480 481
3 481 477 478
3 453 452 482
3 482 477 481
3 477 482 452
3 453 482 483
3 454 453 483
3 483 484 454
3 455 454 484
3 459 457 485
3 486 456 455
3 484 486 455
3 458 487 457
3 457 487 485
3 487 458 456
3 456 486 487
3 485 488 459
3 460 459 488
3 489 468 461
3 488 490 460
3 461 460 490
3 489 461 490
3 479 478 491
3 478 463 491
3 492 466 491
3 492 491 463
3 492 464 466
3 492 462 464
3 492 463 462
3 465 469 493
3 466 465 493
3 479 491 494
3 495 494 491
3 493 495 466
3 495 491 466
3 471 468 496
3 489 496 468
3 497 493 469
3 470 497 469
3 497 470 498
3 472 498 470
3 499 473 471
3 496 499 471
3 472 474 500
3 472 500 498
3 501 475 473
3 501 473 499
3 475 502 476
3 502 475 501
3 502 474 476
3 474 502 500
3 480 479 503
3 479 494 503
3 504 503 494
3 505 480 503
3 480 506 481
3 505 506 480
3 481 507 482
3 482 507 483
3 481 506 507
3 507 508 483
3 484 483 508
3 488 485 509
3 510 486 484
3 510 484 508
3 487 511 485
3 485 511 509
3 511 487 486
3 486 510 511
3 509 512 488
3 490 488 512
3 490 512 513
3 489 490 513
3 489 513 496
3 493 514 495
3 497 514 493
3 494 495 515
3 504 494 515
3 514 515 495
3 499 496 516
3 516 496 513
3 514 497 517
3 498 517 497
3 500 518 498
3 517 498 518
3 499 519 501
3 516 519 499
3 501 520 502
3 520 501 519
3 520 500 502
3 500 520 518
3 505 521 506
3 504 515 522
3 523 503 504
3 504 522 523
3 505 503 523
3 505 523 521
3 506 524 507
3 521 524 506
3 508 507 524
3 525 510 508
3 525 508 524
3 509 526 512
3 511 527 509
3 526 509 527
3 527 511 510
3 510 525 527
3 528 512 526
3 512 528 513
3 529 516 513
3 529 513 528
3 530 515 514
3 530 514 517
3 531 522 515
3 531 515 530
3 516 532 519
3 529 532 516
3 533 517 518
3 517 533 530
3 519 534 520
3 534 519 532
3 518 520 534
3 518 534 533
3 521 535 524
3 531 536 522
3 522 537 523
3 537 522 536
3 521 523 537
3 537 535 521
3 538 525 524
3 535 538 524
3 526 539 528
3 526 527 540
3 540 539 526
3 540 527 525
3 540 525 538
3 529 541 532
3 539 541 528
3 529 528 541
3 533 542 530
3 531 542 536
3 531 530 542
3 532 543 534
3 543 532 541
3 534 543 533
3 542 533 543
3 544 536 542
3 545 538 535
3 546 541 539
3 536 547 537
3 544 547 536
3 535 537 547
3 545 535 547
3 539 540 548
3 546 539 548
3 548 540 538
3 545 548 538
3 549 543 541
3 546 549 541
3 543 549 542
3 544 542 549
3 546 548 550
3 546 550 549
3 544 550 547
3 544 549 550
3 545 547 550
3 545 550 548
